<svg height="450pt" viewBox="0 -4 450.20085 450" width="450pt" xmlns="http://www.w3.org/2000/svg"><path d="m169 281.101562h25v25h-25zm0 0"/><path d="m101 281.101562h25v25h-25zm0 0"/><path d="m32 145.101562h25v25h-25zm0 0"/><path d="m101 145.101562h25v25h-25zm0 0"/><path d="m101 213.101562h25v25h-25zm0 0"/><path d="m363 48.601562c.011719-4.644531-1.828125-9.105468-5.113281-12.390624-3.28125-3.28125-7.742188-5.121094-12.386719-5.109376h-19.5v18.5c0 4.398438-3.800781 8.5-8.199219 8.5h-48.800781c-4.398438 0-8-4.101562-8-8.5v-18.5h-159v18.5c0 4.398438-3.097656 8.5-7.597656 8.5h-48.703125c-4.398438 0-7.699219-4.101562-7.699219-8.5v-18.5h-20.597656c-4.636719-.007812-9.082032 1.835938-12.347656 5.121094-3.269532 3.289063-5.0898442 7.742188-5.054688 12.378906v40.5h363zm0 0"/><path d="m32 213.101562h25v25h-25zm0 0"/><path d="m54 .101562h32v42h-32zm0 0"/><path d="m277 .101562h33v42h-33zm0 0"/><path d="m169 213.101562h25v25h-25zm0 0"/><path d="m306 145.101562h25v25h-25zm0 0"/><path d="m32 281.101562h25v25h-25zm0 0"/><path d="m237 145.101562h25v25h-25zm0 0"/><path d="m306 213.101562h25v25h-25zm0 0"/><path d="m237 213.101562h25v25h-25zm0 0"/><path d="m363 252.902344v-147.800782h-363v218.199219c-.09375 9.714844 7.6875 17.675781 17.402344 17.800781h244.097656c7.082031-50.613281 50.398438-88.253906 101.5-88.199218zm-73-115.800782c.015625-4.414062 3.589844-7.988281 8-8h41c4.414062.011719 7.988281 3.585938 8 8v41c-.011719 4.410157-3.585938 7.984376-8 8h-41c-4.410156-.015624-7.984375-3.589843-8-8zm-217 177c-.011719 4.410157-3.585938 7.984376-8 8h-41c-4.410156-.015624-7.984375-3.589843-8-8v-41c.015625-4.414062 3.589844-7.988281 8-8h41c4.414062.011719 7.988281 3.585938 8 8zm0-68c-.011719 4.410157-3.585938 7.984376-8 8h-41c-4.410156-.015624-7.984375-3.589843-8-8v-41c.015625-4.414062 3.589844-7.988281 8-8h41c4.414062.011719 7.988281 3.585938 8 8zm0-68c-.011719 4.410157-3.585938 7.984376-8 8h-41c-4.410156-.015624-7.984375-3.589843-8-8v-41c.015625-4.414062 3.589844-7.988281 8-8h41c4.414062.011719 7.988281 3.585938 8 8zm69 136c-.011719 4.410157-3.585938 7.984376-8 8h-41c-4.410156-.015624-7.984375-3.589843-8-8v-41c.015625-4.414062 3.589844-7.988281 8-8h41c4.414062.011719 7.988281 3.585938 8 8zm0-68c-.011719 4.410157-3.585938 7.984376-8 8h-41c-4.410156-.015624-7.984375-3.589843-8-8v-41c.015625-4.414062 3.589844-7.988281 8-8h41c4.414062.011719 7.988281 3.585938 8 8zm0-68c-.011719 4.410157-3.585938 7.984376-8 8h-41c-4.410156-.015624-7.984375-3.589843-8-8v-41c.015625-4.414062 3.589844-7.988281 8-8h41c4.414062.011719 7.988281 3.585938 8 8zm68 136c-.011719 4.410157-3.585938 7.984376-8 8h-41c-4.410156-.015624-7.984375-3.589843-8-8v-41c.015625-4.414062 3.589844-7.988281 8-8h41c4.414062.011719 7.988281 3.585938 8 8zm0-68c-.011719 4.410157-3.585938 7.984376-8 8h-41c-4.410156-.015624-7.984375-3.589843-8-8v-41c.015625-4.414062 3.589844-7.988281 8-8h41c4.414062.011719 7.988281 3.585938 8 8zm0-68c-.011719 4.410157-3.585938 7.984376-8 8h-41c-4.410156-.015624-7.984375-3.589843-8-8v-41c.015625-4.414062 3.589844-7.988281 8-8h41c4.414062.011719 7.988281 3.585938 8 8zm68 68c-.011719 4.410157-3.585938 7.984376-8 8h-41c-4.410156-.015624-7.984375-3.589843-8-8v-41c.015625-4.414062 3.589844-7.988281 8-8h41c4.414062.011719 7.988281 3.585938 8 8zm0-68c-.011719 4.410157-3.585938 7.984376-8 8h-41c-4.410156-.015624-7.984375-3.589843-8-8v-41c.015625-4.414062 3.589844-7.988281 8-8h41c4.414062.011719 7.988281 3.585938 8 8zm12 27c.015625-4.414062 3.589844-7.988281 8-8h41c4.414062.011719 7.988281 3.585938 8 8v41c-.011719 4.410157-3.585938 7.984376-8 8h-41c-4.410156-.015624-7.984375-3.589843-8-8zm0 0"/><path d="m363.300781 268.902344c-47.898437 0-86.898437 38.898437-86.898437 86.597656 0 47.800781 39 86.601562 86.898437 86.601562 47.898438 0 86.898438-38.902343 86.898438-86.601562s-39-86.597656-86.898438-86.597656zm9.699219 89.199218c.050781 2.113282-.742188 4.164063-2.199219 5.699219l-25.800781 26c-1.507812 1.507813-3.566406 2.339844-5.699219 2.300781-2.125-.007812-4.164062-.832031-5.699219-2.300781-3.128906-3.101562-3.171874-8.144531-.101562-11.300781l23.402344-23.597656v-48.902344c0-4.417969 3.582031-8 8-8 4.417968 0 8 3.582031 8 8v52.101562zm0 0"/><path d="m169 145.101562h25v25h-25zm0 0"/></svg>